<svg xmlns="http://www.w3.org/2000/svg" width="23.541" height="23.527" viewBox="0 0 23.541 23.527">
  <path id="Вычитание_19" data-name="Вычитание 19" d="M11.764,23.527a11.733,11.733,0,0,1-6.207-1.78L.655,23.5a.49.49,0,0,1-.622-.638l1.83-4.749A11.762,11.762,0,0,1,11.763,0h.01a11.763,11.763,0,1,1-.01,23.527ZM8.333,5.881a2.942,2.942,0,0,0-2.451,2.94c0,1.539,1.842,4.5,3.083,5.738s4.2,3.084,5.738,3.084h.031a2.947,2.947,0,0,0,2.91-2.451v-.98a.489.489,0,0,0-.274-.441c-.012-.006-1.205-.59-1.953-.98a1.127,1.127,0,0,0-.521-.125,2.968,2.968,0,0,0-1.8.974,5.874,5.874,0,0,1-1.968-1.249,5.843,5.843,0,0,1-1.248-1.967c.5-.508,1.279-1.483.848-2.322-.389-.756-.979-1.951-.98-1.953a.493.493,0,0,0-.437-.269h-.98Z" fill="#0a99ab"/>
</svg>
