<svg xmlns="http://www.w3.org/2000/svg" width="25.931" height="22.276" viewBox="0 0 25.931 22.276">
  <path id="Объединение_14" data-name="Объединение 14" d="M489.991,4975.217l-2.679-1.38a9.668,9.668,0,0,1-2.485.325c-4.467,0-8.1-3-8.1-6.684s3.635-6.682,8.1-6.682,8.1,3,8.1,6.682a6.3,6.3,0,0,1-2.93,5.14l.734,1.893a.57.57,0,0,1-.019.456.536.536,0,0,1-.483.309A.526.526,0,0,1,489.991,4975.217Zm-3.543-9.965a1.081,1.081,0,1,0,1.081-1.114A1.1,1.1,0,0,0,486.448,4965.252Zm-5.4,0a1.081,1.081,0,1,0,1.081-1.114A1.1,1.1,0,0,0,481.046,4965.252Zm-11.593,5.511a.543.543,0,0,1-.268-.323.57.57,0,0,1,.033-.427l1.115-2.3a7.94,7.94,0,0,1-3.334-6.359c0-4.607,4.242-8.354,9.454-8.354a9.319,9.319,0,0,1,9.052,5.95.57.57,0,0,1-.073.509.563.563,0,0,1-.448.232l-.159-.009c-5.064,0-9.183,3.5-9.183,7.8a6.633,6.633,0,0,0,.175,1.468.559.559,0,0,1,.01.191.545.545,0,0,1-.535.493.6.6,0,0,1-.063,0,10.446,10.446,0,0,1-2.4-.565l-2.859,1.685a.518.518,0,0,1-.522.017Zm8.352-12.751a1.622,1.622,0,1,0,1.62-1.67A1.648,1.648,0,0,0,477.8,4958.012Zm-6.483,0a1.622,1.622,0,1,0,1.62-1.67A1.649,1.649,0,0,0,471.322,4958.012Z" transform="translate(-467 -4953)" fill="#aaeff9"/>
</svg>
