<svg xmlns="http://www.w3.org/2000/svg" width="37.25" height="34" viewBox="0 0 37.25 34"><g transform="translate(-724 -2348)"><circle cx="16" cy="16" r="16" transform="translate(724 2350)" fill="#fff" opacity="0.5"/><path d="M25.081,10.039l-4.028,4.037c-.017.018-.03.04-.048.058l-1.238,1.238c-.007.007-.015.009-.022.015l-3.4,3.412a4.266,4.266,0,0,1-6.033,0l-.105-.105L3.068,25.809A1.75,1.75,0,0,1,.081,24.571a1.737,1.737,0,0,1,.513-1.237l7.135-7.116-.049-.049a4.266,4.266,0,0,1,0-6.033l8.74-8.76a4.266,4.266,0,0,1,6.033,0l2.629,2.629a4.266,4.266,0,0,1,0,6.033ZM1.212,23.953a.875.875,0,0,0,0,1.237.9.9,0,0,0,1.238,0l7.135-7.116L8.348,16.836ZM7.3,13.152a3.368,3.368,0,0,0,.993,2.4l2.629,2.629a3.391,3.391,0,0,0,4.8,0l4.685-4.7a.863.863,0,0,0-.021-1.206.876.876,0,0,0-1.237,0l-.619.619a1.791,1.791,0,0,1-2.475,0,1.751,1.751,0,0,1,0-2.474L17.6,8.874a1.313,1.313,0,0,0-1.856-1.856l-3.4,3.4a1.753,1.753,0,0,1-2.475,0,1.73,1.73,0,0,1-.447-.793L8.3,10.755A3.367,3.367,0,0,0,7.3,13.152ZM24.463,4.624,21.833,2a3.39,3.39,0,0,0-4.795,0L11.119,7.928c-.005.006-.007.013-.012.018l-.619.619A.875.875,0,1,0,11.725,9.8l3.4-3.4a2.187,2.187,0,0,1,3.094,3.094L16.675,11.04a.876.876,0,0,0,0,1.237.9.9,0,0,0,1.238,0l.619-.619a1.753,1.753,0,0,1,2.475,0,1.733,1.733,0,0,1,.444.78L24.462,9.42a3.39,3.39,0,0,0,0-4.8Z" transform="translate(734.919 2347.873)" fill="#0a99ab"/></g></svg>