<svg xmlns="http://www.w3.org/2000/svg" width="37.249" height="32" viewBox="0 0 37.249 32"><g transform="translate(-724 -2137)"><circle cx="16" cy="16" r="16" transform="translate(724 2137)" fill="#fff" opacity="0.5"/><path d="M21.536,10.726a8.2,8.2,0,0,1-1.858,8.925,8.287,8.287,0,0,1-5.887,2.473,7.784,7.784,0,0,1-2.987-.592c-.082,1.857-.522,5.46-2.688,5.7a1.939,1.939,0,0,1-.22.012,2.341,2.341,0,0,1-1.641-.732,4.781,4.781,0,0,1-1.144-2.9c-.017-.121-.033-.238-.05-.349-.111-.017-.228-.034-.35-.05a4.785,4.785,0,0,1-2.9-1.144,2.293,2.293,0,0,1-.721-1.862c.243-2.165,3.847-2.605,5.7-2.687A8.369,8.369,0,0,1,14.566,6.181a7.776,7.776,0,0,1,3.039.614c.106-2.776.854-5.577,2.692-5.782a2.3,2.3,0,0,1,1.862.719,4.782,4.782,0,0,1,1.144,2.9c.017.122.033.239.05.35.11.017.226.033.346.049a4.782,4.782,0,0,1,2.9,1.145,2.292,2.292,0,0,1,.719,1.862C27.111,9.873,24.311,10.62,21.536,10.726Zm4.446-3.934a3.967,3.967,0,0,0-2.4-.9c-.255-.035-.491-.068-.7-.112a.438.438,0,0,1-.334-.334c-.045-.206-.079-.444-.114-.7a3.965,3.965,0,0,0-.9-2.4A1.421,1.421,0,0,0,20.4,1.882c-1.323.148-1.927,3.009-1.929,5.6a.438.438,0,0,1-.646.384,6.84,6.84,0,0,0-3.255-.814A7.417,7.417,0,0,0,9.3,9.273a7.282,7.282,0,0,0-1.432,8.47.438.438,0,0,1-.384.643c-2.555.014-5.372.624-5.519,1.928a1.432,1.432,0,0,0,.47,1.144,3.967,3.967,0,0,0,2.4.9c.256.035.493.068.7.114a.438.438,0,0,1,.334.334c.045.206.078.444.113.7a3.966,3.966,0,0,0,.9,2.4,1.427,1.427,0,0,0,1.143.469c1.3-.147,1.913-2.964,1.928-5.519a.437.437,0,0,1,.643-.384,6.851,6.851,0,0,0,3.2.785,7.419,7.419,0,0,0,5.268-2.217,7.265,7.265,0,0,0,1.4-8.522.437.437,0,0,1,.384-.646c2.594,0,5.455-.606,5.6-1.928A1.411,1.411,0,0,0,25.982,6.792ZM16.425,19.438a.433.433,0,0,1-.171.035.438.438,0,0,1-.172-.84A4.883,4.883,0,0,0,18.9,15.284a.437.437,0,0,1,.851.2A5.76,5.76,0,0,1,16.425,19.438ZM13.615,9.311a4.817,4.817,0,0,0-3.278,1.85.437.437,0,1,1-.692-.535,5.685,5.685,0,0,1,3.868-2.184.438.438,0,1,1,.1.869Zm-4.3,4.664a.437.437,0,0,1-.437.422H8.867a.438.438,0,0,1-.422-.452,5.724,5.724,0,0,1,.2-1.326.437.437,0,1,1,.843.233A4.884,4.884,0,0,0,9.319,13.975Z" transform="translate(733.918 2137)" fill="#0a99ab"/></g></svg>