<svg xmlns="http://www.w3.org/2000/svg" width="1440.273" height="45.104" viewBox="0 0 1447.273 45.104">
  <path id="Контур_878" data-name="Контур 878" d="M-467-2397.5l32.892-21.826,32.892,21.826,32.893-21.826,32.893,21.826,32.893-21.826,32.893,21.826,32.893-21.826,32.893,21.826,32.893-21.826,32.893,21.826,32.893-21.826,32.893,21.826,32.893-21.826L-6.5-2397.5l32.893-21.826L59.281-2397.5l32.893-21.826,32.893,21.826,32.893-21.826,32.893,21.826,32.893-21.826,32.893,21.826,32.893-21.826,32.893,21.826,32.893-21.826,32.893,21.826,32.893-21.826,32.893,21.826,32.893-21.826,32.893,21.826,32.893-21.826,32.893,21.826,32.893-21.826,32.893,21.826,32.893-21.826,32.893,21.826,32.893-21.826,32.893,21.826,32.893-21.826L848.7-2397.5l32.893-21.826,32.893,21.826,32.893-21.826,32.893,21.826v-45.1H-467Z" transform="translate(467 2442.6)" fill="#e6f5f7"/>
</svg>
