<svg xmlns="http://www.w3.org/2000/svg" width="37.248" height="33" viewBox="0 0 37.248 33"><g transform="translate(-724 -2243)"><circle cx="16" cy="16" r="16" transform="translate(724 2244)" fill="#fff" opacity="0.5"/><path d="M26,11.987l.4.4a1.314,1.314,0,0,1,0,1.856,1.345,1.345,0,0,1-1.856,0l-.4-.4a7.477,7.477,0,0,1-4.252,1.333,7.367,7.367,0,0,1-4.928-1.882L1.827,26.3a.437.437,0,0,1-.616-.622l13.13-13A7.441,7.441,0,0,1,13.8,3.5l-.4-.4a1.314,1.314,0,0,1,0-1.856,1.344,1.344,0,0,1,1.856,0l.4.4A7.476,7.476,0,0,1,19.9.308,7.43,7.43,0,0,1,26,11.987Zm-10.741.4A6.507,6.507,0,0,0,19.889,14.3a6.6,6.6,0,0,0,3.621-1.09L14.429,4.13A6.565,6.565,0,0,0,15.256,12.383ZM24.537,3.1A6.508,6.508,0,0,0,19.9,1.183a6.588,6.588,0,0,0-4.027,1.379.438.438,0,0,1-.578-.036l-.661-.661a.438.438,0,1,0-.619.619l.661.661L24.537,13h0l.619.619a.449.449,0,0,0,.619,0,.439.439,0,0,0,0-.619l-.661-.661a.437.437,0,0,1-.036-.577A6.566,6.566,0,0,0,24.537,3.1Zm-3.006.087a.445.445,0,0,1-.136-.021,4.817,4.817,0,0,0-1.848-.226.438.438,0,1,1-.063-.873,5.681,5.681,0,0,1,2.184.266.438.438,0,0,1-.136.854Zm-3.658.185a4.863,4.863,0,0,0-.46.245.438.438,0,1,1-.452-.749,5.679,5.679,0,0,1,.544-.289.437.437,0,1,1,.368.794Zm-.157,8.659a4.835,4.835,0,0,0,3.185.416.437.437,0,0,1,.182.856,5.713,5.713,0,0,1-3.762-.492.437.437,0,1,1,.4-.78Z" transform="translate(733.919 2242.692)" fill="#0a99ab"/></g></svg>