<svg xmlns="http://www.w3.org/2000/svg" width="37.247" height="34" viewBox="0 0 37.247 34"><g transform="translate(-724 -2295)"><circle cx="16" cy="16" r="16" transform="translate(724 2297)" fill="#fff" opacity="0.5"/><path d="M26.379,15.075a2.8,2.8,0,0,1-1.343.972c.024.038.057.076.08.113,1.254,2.08.637,4.966-1.536,7.181a6.921,6.921,0,0,1-4.79,2.243A4.646,4.646,0,0,1,16.5,25c-.087-.048-.174-.112-.261-.168a2.8,2.8,0,0,1-.977,1.36,5.648,5.648,0,0,1-3.367.983,7.23,7.23,0,0,1-2.66-.5,4.93,4.93,0,0,1-2.752-2.487,2.164,2.164,0,0,1-1.326.412,3.09,3.09,0,0,1-.757-.1,5.319,5.319,0,0,1-2.934-2.3,2.124,2.124,0,0,1-.339-1.593c.4-1.5,2.125-1.869,3.608-1.715A3.752,3.752,0,0,1,6.4,19.5a4.331,4.331,0,0,1,.472-.839C7.352,18,9.989,16.25,11.4,16.4a3.832,3.832,0,0,1-.014-.547A4.484,4.484,0,0,1,13.064,12.7a3.626,3.626,0,0,1,2.774-1.415,3.79,3.79,0,0,1,.645.017c-.136-1.413,1.6-4.032,2.259-4.511a4.331,4.331,0,0,1,.839-.472,3.745,3.745,0,0,1-.606-1.663c-.156-1.483.213-3.21,1.715-3.608a2.13,2.13,0,0,1,1.593.34,5.316,5.316,0,0,1,2.3,2.934A2.444,2.444,0,0,1,24.267,6.4,5.02,5.02,0,0,1,26.84,9.22,6.387,6.387,0,0,1,26.379,15.075ZM6.121,22.986a7.416,7.416,0,0,1-.044-2.344.429.429,0,0,1,0-.212s.005-.018-.023-.06a2.36,2.36,0,0,0-1.411-.605c-.387-.04-2.339-.181-2.67,1.069a1.356,1.356,0,0,0,.248.925,4.43,4.43,0,0,0,2.4,1.895,1.58,1.58,0,0,0,1.361-.175.343.343,0,0,0,.152-.257.42.42,0,0,1,.017-.122C6.14,23.061,6.127,23.025,6.121,22.986Zm5.507-5.369a.452.452,0,0,0-.232-.331c-.613-.3-3.342,1.235-3.815,1.888a4.526,4.526,0,0,0-.6,3.671,3.9,3.9,0,0,0,2.577,3.016,5.737,5.737,0,0,0,5.173-.368,1.8,1.8,0,0,0,.73-1.274,15.652,15.652,0,0,1-3.837-6.6Zm4.457-5.467c-.061,0-.12,0-.175.007a2.808,2.808,0,0,0-2.226,1.162,3.6,3.6,0,0,0-1.424,2.591,4.742,4.742,0,0,0,.185,1.4c.008.024.019.045.027.07s0,.024,0,.037c.655,2.4,2.677,5.827,4.454,6.814a3.782,3.782,0,0,0,1.862.475,6.051,6.051,0,0,0,4.165-1.981c1.889-1.925,2.456-4.383,1.41-6.116C23.146,14.586,18.243,12.15,16.084,12.15Zm7.218-6.1A.367.367,0,0,0,23.56,5.9a1.586,1.586,0,0,0,.175-1.361,4.429,4.429,0,0,0-1.9-2.394,1.356,1.356,0,0,0-.925-.248c-1.249.331-1.109,2.282-1.069,2.67a2.361,2.361,0,0,0,.6,1.41c.042.028.056.025.061.023a.429.429,0,0,1,.212,0,7.4,7.4,0,0,1,2.344.044c.038.006.072.018.109.025A.408.408,0,0,1,23.3,6.049Zm2.726,3.5a4.06,4.06,0,0,0-3.1-2.641,4.522,4.522,0,0,0-3.671.595c-.654.472-2.187,3.2-1.889,3.815.061.125.071.138.233.183a.273.273,0,0,1,.032.016,16.465,16.465,0,0,1,6.784,3.761,1.8,1.8,0,0,0,1.267-.729A5.55,5.55,0,0,0,26.028,9.545Z" transform="translate(733.918 2293.999)" fill="#0a99ab"/></g></svg>