<svg xmlns="http://www.w3.org/2000/svg" width="34.522" height="32" viewBox="0 0 34.522 32"><g transform="translate(-724 -2190)"><circle cx="16" cy="16" r="16" transform="translate(724 2190)" fill="#fff" opacity="0.5"/><path d="M18.531,12.111,5.078,25.564a2.34,2.34,0,0,1-3.309-3.309l7.4-7.4h0L15.221,8.8h0A2.416,2.416,0,0,0,11.8,5.385L8.777,8.412A2.34,2.34,0,0,1,5.468,5.1L8.495,2.075A7.1,7.1,0,0,1,18.531,12.111ZM18,2.8a.429.429,0,0,1-.364-.112.437.437,0,0,1,0,.614l-.092.093a.438.438,0,1,1-.621-.617l.092-.093a.438.438,0,0,1,.614-.007.435.435,0,0,1-.121-.328A6.155,6.155,0,0,0,14.535.965a.432.432,0,0,1-.3.127.424.424,0,0,1-.073-.006.432.432,0,0,1-.29-.194c-.119-.007-.237-.017-.357-.017a6.222,6.222,0,0,0-2.342.455.432.432,0,0,1-.423.366.425.425,0,0,1-.213-.063,6.218,6.218,0,0,0-1.42,1.062L8.073,3.735a.432.432,0,0,1-.406.406l-.009.009a.435.435,0,0,1,.42.434v.132a.437.437,0,0,1-.875,0V4.6L6.086,5.721a1.467,1.467,0,0,0,0,2.072,1.493,1.493,0,0,0,1.44.355A.432.432,0,0,1,7.2,7.734V7.6a.437.437,0,1,1,.875,0v.131a.431.431,0,0,1-.03.148,1.341,1.341,0,0,0,.11-.089l2.247-2.247a.428.428,0,0,1-.1-.262V5.152a.437.437,0,0,1,.437-.437.43.43,0,0,1,.33.159l.108-.108a3.259,3.259,0,0,1,2.156-.946.427.427,0,0,1-.046-.263l.022-.129a.438.438,0,0,1,.863.147l-.022.129a.433.433,0,0,1-.062.156,3.276,3.276,0,0,1,1.3.543.424.424,0,0,1,.105-.2l.093-.093a.437.437,0,0,1,.621.616l-.093.093a.434.434,0,0,1-.151.1,3.241,3.241,0,0,1,.692,1.256.431.431,0,0,1,.259.282.438.438,0,0,1,.306-.537l.127-.035a.436.436,0,0,1,.538.305.438.438,0,0,1,.306-.537l.126-.035a.437.437,0,0,1,.538.305.438.438,0,0,1,.306-.537l.126-.035a.438.438,0,0,1,.169-.012A6.16,6.16,0,0,0,18,2.8Zm1.529,3.4-.126.035a.446.446,0,0,1-.116.016.438.438,0,0,1-.422-.321.437.437,0,0,1-.306.537l-.126.035a.449.449,0,0,1-.117.016.437.437,0,0,1-.421-.322.438.438,0,0,1-.306.537l-.126.035a.449.449,0,0,1-.116.016.438.438,0,0,1-.422-.322.436.436,0,0,1-.147.455,3.309,3.309,0,0,1-.416,1.8.44.44,0,0,1,.173-.036h.131a.437.437,0,0,1,0,.875h-.131a.438.438,0,0,1-.437-.437s0-.007,0-.011l0,0s0,0,0,.007a.432.432,0,0,1-.375.425L13.56,11.7h.081a.437.437,0,1,1,0,.875H13.51a.434.434,0,0,1-.429-.4l-.021.021a.426.426,0,0,1-.362.362l-2.164,2.164h.081a.437.437,0,1,1,0,.875h-.131a.434.434,0,0,1-.429-.4l-.021.021a.427.427,0,0,1-.362.362L7.506,17.755h.081a.437.437,0,0,1,0,.875H7.456a.433.433,0,0,1-.429-.4l-.021.021a.428.428,0,0,1-.363.363L4.479,20.782H4.56a.437.437,0,1,1,0,.875H4.429a.433.433,0,0,1-.429-.4l-.021.021a.428.428,0,0,1-.363.363L2.387,22.874A1.459,1.459,0,0,0,1.96,23.9a.408.408,0,0,1,.11.567,1.452,1.452,0,0,0,.318.477,1.5,1.5,0,0,0,2.072,0l.262-.262H4.589a.437.437,0,1,1,0-.875h.131a.438.438,0,0,1,.437.437h0a.437.437,0,0,1,.437-.437h0l2.254-2.254a.43.43,0,0,1-.272.1H7.448a.437.437,0,1,1,0-.875h.131a.438.438,0,0,1,.437.437.428.428,0,0,1-.1.272l.131-.131a.429.429,0,0,1-.028-.14.438.438,0,0,1,.437-.437h.131c.011,0,.02.006.031.007l2.261-2.261a.43.43,0,0,1-.271.1h-.131a.437.437,0,1,1,0-.875h.131a.438.438,0,0,1,.437.437.428.428,0,0,1-.1.271l.131-.131a.429.429,0,0,1-.028-.14.438.438,0,0,1,.437-.437h.131c.011,0,.02.006.031.007L13.9,15.5a.43.43,0,0,1-.272.1H13.5a.437.437,0,0,1,0-.875h.131a.437.437,0,0,1,.437.438.429.429,0,0,1-.1.272l.131-.131a.429.429,0,0,1-.028-.14.438.438,0,0,1,.437-.438h.131c.011,0,.021.006.031.007l2.261-2.261a.429.429,0,0,1-.271.1h-.131a.437.437,0,0,1,0-.875h.131a.437.437,0,0,1,.437.437.43.43,0,0,1-.1.271l.131-.131a.429.429,0,0,1-.028-.14.438.438,0,0,1,.437-.437h.131c.011,0,.021.006.031.006l.214-.214a6.185,6.185,0,0,0,1.363-2.053.429.429,0,0,1,.245-.759,6.271,6.271,0,0,0,.126-2.541A.427.427,0,0,1,19.532,6.2ZM17.543,8.674h.131a.437.437,0,1,1,0,.875h-.131a.437.437,0,1,1,0-.875ZM14.516,11.7h.131a.437.437,0,0,1,0,.875h-.131a.437.437,0,0,1,0-.875Zm-3.027,3.027h.131a.437.437,0,0,1,0,.875h-.131a.437.437,0,0,1,0-.875ZM8.463,17.755h.131a.437.437,0,1,1,0,.875H8.463a.437.437,0,1,1,0-.875ZM5.435,20.782h.131a.437.437,0,1,1,0,.875H5.435a.437.437,0,1,1,0-.875ZM2.576,23.809h.132a.437.437,0,1,1,0,.875H2.576a.437.437,0,0,1,0-.875Zm1.137.875H3.583a.437.437,0,1,1,0-.875h.131a.437.437,0,1,1,0,.875Zm2.859-3.027H6.442a.437.437,0,1,1,0-.875h.131a.437.437,0,1,1,0,.875ZM9.6,18.63H9.469a.437.437,0,1,1,0-.875H9.6a.437.437,0,1,1,0,.875ZM12.627,15.6H12.5a.437.437,0,0,1,0-.875h.132a.437.437,0,0,1,0,.875Zm3.027-3.027h-.132a.437.437,0,0,1,0-.875h.132a.437.437,0,0,1,0,.875Zm3.027-3.027h-.131a.437.437,0,0,1,0-.875h.131a.437.437,0,1,1,0,.875ZM16.835,4.108a.437.437,0,0,1-.62-.617l.093-.093a.437.437,0,1,1,.62.617ZM14.065,2.084a.429.429,0,0,1-.074-.006.438.438,0,0,1-.358-.5l.022-.129a.437.437,0,1,1,.862.147L14.5,1.72A.438.438,0,0,1,14.065,2.084Zm.284.5-.022.129a.438.438,0,0,1-.431.364.473.473,0,0,1-.074-.006.438.438,0,0,1-.358-.5l.022-.129a.437.437,0,0,1,.862.147Zm-3.164-.449v.132a.437.437,0,1,1-.875,0V2.133a.437.437,0,1,1,.875,0ZM8.078,5.59v.131a.437.437,0,0,1-.875,0V5.59a.437.437,0,1,1,.875,0ZM7.2,6.727V6.6a.437.437,0,1,1,.875,0v.131a.437.437,0,1,1-.875,0Zm3.106-2.45V4.146a.437.437,0,1,1,.875,0v.131a.437.437,0,0,1-.875,0Zm0-1.007V3.14a.437.437,0,1,1,.875,0v.131a.437.437,0,1,1-.875,0Z" transform="translate(737.916 2190)" fill="#0a99ab"/></g></svg>